<?xml version="1.0" standalone="no"?>
<!DOCTYPE svg PUBLIC "-//W3C//DTD SVG 20010904//EN"
 "http://www.w3.org/TR/2001/REC-SVG-20010904/DTD/svg10.dtd">
<svg version="1.0" xmlns="http://www.w3.org/2000/svg"
 width="310.000000pt" height="310.000000pt" viewBox="0 0 310.000000 310.000000"
 preserveAspectRatio="xMidYMid meet">
<metadata>
Created by potrace 1.14, written by Peter Selinger 2001-2017
</metadata>
<g transform="translate(0.000000,310.000000) scale(0.100000,-0.100000)"
fill="#000000" stroke="none">
<path d="M0 2168 c0 -919 1 -932 19 -892 33 71 111 113 214 114 l37 0 0 592
c0 583 0 592 21 636 43 89 153 126 244 82 42 -21 87 -77 526 -664 264 -352
483 -642 487 -643 4 -1 224 288 490 643 450 601 487 647 529 666 92 41 199 3
242 -84 21 -44 21 -53 21 -636 l0 -592 38 0 c102 -1 180 -43 213 -114 18 -40
19 -27 19 892 l0 932 -1550 0 -1550 0 0 -932z"/>
<path d="M640 1682 l0 -292 221 0 c176 0 219 3 212 13 -6 6 -99 131 -208 277
-109 146 -204 272 -211 280 -12 12 -14 -30 -14 -278z"/>
<path d="M2238 1684 l-217 -289 216 -3 c119 -1 218 -1 220 1 2 2 2 134 1 292
l-3 289 -217 -290z"/>
<path d="M0 583 l0 -583 1550 0 1550 0 0 583 c-1 529 -2 579 -16 547 -33 -76
-84 -109 -184 -117 l-69 -6 -3 -242 -3 -242 -28 -42 c-49 -75 -156 -103 -235
-62 -93 48 -102 79 -102 361 l0 230 -910 0 -910 0 0 -230 c0 -241 -5 -276 -48
-323 -66 -74 -208 -74 -274 0 -43 47 -48 82 -48 321 l0 229 -69 6 c-101 8
-152 41 -185 117 -14 32 -15 -18 -16 -547z"/>
</g>
</svg>
