<svg width="400" height="400" xmlns="http://www.w3.org/2000/svg">
    <g>
        <rect fill="none" id="canvas_background" height="402" width="402" y="-1" x="-1"/>
    </g>
    <g>
        <path stroke="null" fill="#00adb5" stroke-width="0" id="svg_1" d="m199.999991,134.465541a65.534462,65.534462 0 1 0 65.534462,65.534462a65.731065,65.731065 0 0 0 -65.534462,-65.534462zm141.488903,65.534462a135.598994,135.598994 0 0 1 -1.343456,18.300499l39.885912,31.227171a9.494305,9.494305 0 0 1 2.154445,12.107492l-37.731466,65.141255a9.535264,9.535264 0 0 1 -11.583216,4.038561l-46.898099,-18.841158a144.634558,144.634558 0 0 1 -31.800598,18.570828l-7.012187,49.789807a9.772827,9.772827 0 0 1 -9.428771,8.077122l-75.462933,0a9.830169,9.830169 0 0 1 -9.428771,-7.806793l-7.012187,-49.789807a138.687305,138.687305 0 0 1 -31.800598,-18.587212l-46.898099,18.841158a9.535264,9.535264 0 0 1 -11.583216,-4.030369l-37.731466,-65.133063a9.494305,9.494305 0 0 1 2.154445,-12.107492l39.885912,-31.227171a143.01258,143.01258 0 0 1 -1.343456,-18.570828a135.598994,135.598994 0 0 1 1.343456,-18.300499l-39.885912,-31.227171a9.494305,9.494305 0 0 1 -2.154445,-12.107492l37.731466,-65.141255a9.535264,9.535264 0 0 1 11.583216,-4.038561l46.898099,18.841158a144.634558,144.634558 0 0 1 31.800598,-18.570828l7.012187,-49.789807a9.772827,9.772827 0 0 1 9.428771,-8.077122l75.462933,0a9.830169,9.830169 0 0 1 9.428771,7.806793l7.012187,49.789807a138.687305,138.687305 0 0 1 31.841557,18.587212l46.85714,-18.841158a9.535264,9.535264 0 0 1 11.583216,4.030369l37.731466,65.141255a9.494305,9.494305 0 0 1 -2.154445,12.107492l-39.885912,31.227171a143.01258,143.01258 0 0 1 1.343456,18.562636z"/>
    </g>
</svg>