<svg width="400" height="400" xmlns="http://www.w3.org/2000/svg" class="ionicon">
 <title>Mic</title>

 <g>
  <title>background</title>
  <rect fill="none" id="canvas_background" height="402" width="402" y="-1" x="-1"/>
 </g>
 <g>
  <title>Layer 1</title>
  <path id="svg_1" d="m136,384l128,0m64,-240l0,32c0,70.4 -57.6,128 -128,128l0,0c-70.4,0 -128,-57.6 -128,-128l0,-32m128,160l0,80" stroke-width="32" stroke-linejoin="round" stroke-linecap="round" stroke="#00adb5" fill="none"/>
  <path fill="#00adb5" id="svg_2" d="m200.00029,272.000614a78.83,78.83 0 0 1 -56.55,-24.1a80.89,80.89 0 0 1 -23.45,-56.9l0,-111a79.69,79.69 0 0 1 80,-80c44.86,0 80,35.14 80,80l0,111c0,44.66 -35.89,81 -80,81z"/>
 </g>
</svg>