<svg width="400" height="400" xmlns="http://www.w3.org/2000/svg" class="ionicon">
 <title>Podium</title>

 <g>
  <title>background</title>
  <rect fill="none" id="canvas_background" height="402" width="402" y="-1" x="-1"/>
 </g>
 <g>
  <title>Layer 1</title>
  <path stroke="null" fill="#00adb5" id="svg_1" d="m253.333326,13.333344l-106.666664,0a26.666666,26.666666 0 0 0 -26.666666,26.666666l0,343.333324a3.333333,3.333333 0 0 0 3.333333,3.333333l153.333329,0a3.333333,3.333333 0 0 0 3.333333,-3.333333l0,-343.333324a26.666666,26.666666 0 0 0 -26.666666,-26.666666zm119.999997,133.33333l-59.999998,0a6.666666,6.666666 0 0 0 -6.666666,6.666666l0,226.66666a6.666666,6.666666 0 0 0 6.666666,6.666666l66.666665,0a19.999999,19.999999 0 0 0 19.999999,-19.999999l0,-193.333328a26.666666,26.666666 0 0 0 -26.666666,-26.666666zm-346.666657,-53.333332a26.666666,26.666666 0 0 0 -26.666666,26.666666l0,246.66666a19.999999,19.999999 0 0 0 19.999999,19.999999l66.666665,0a6.666666,6.666666 0 0 0 6.666666,-6.666666l0,-279.999992a6.666666,6.666666 0 0 0 -6.666666,-6.666666l-59.999998,0z"/>
 </g>
</svg>